<svg width="193" height="142" viewBox="0 0 193 142" fill="none" xmlns="http://www.w3.org/2000/svg">
<path fill-rule="evenodd" clip-rule="evenodd" d="M84.0927 13.3337L83.9787 26.6675L68.3272 26.7811L52.6756 26.8951V39.2402V51.5857L63.4754 51.7015L74.2752 51.8173L72.4013 55.0694C71.3707 56.8581 68.3393 62.0992 65.6645 66.7159C62.9897 71.3331 60.9642 75.2699 61.1637 75.465C61.3636 75.6597 65.8013 78.2939 71.0257 81.318C76.2501 84.3425 80.7094 86.991 80.9348 87.2039C81.8095 88.0291 82.49 87.4853 84.1139 84.6638C85.04 83.0542 88.1945 77.5711 91.1236 72.4796C95.5156 64.8449 96.5354 63.3411 96.9417 63.8987C97.2129 64.2712 100.428 69.7538 104.087 76.0829C107.746 82.4124 110.875 87.5907 111.04 87.5907C111.468 87.5907 130.919 76.3045 131.64 75.6372C132.142 75.1723 131.164 73.2158 125.542 63.4504L118.844 51.8173L129.585 51.7015L140.324 51.5857V39.2402V26.8951L124.673 26.7811L109.021 26.6675L108.919 13.6589C108.863 6.50426 108.814 0.503863 108.811 0.325213C108.808 0.146563 103.271 0 96.506 0H84.2071L84.0927 13.3337ZM0 39.2424V51.6005H12.5212H25.0425V39.2424V26.8843H12.5212H0V39.2424ZM167.957 39.2424V51.6005H180.479H193V39.2424V26.8843H180.479H167.957V39.2424ZM3.8859 75.3948C3.8859 75.6033 4.57283 77.5061 5.41304 79.6225C10.1694 91.6121 17.3778 102.902 25.8283 111.601C34.5815 120.609 42.7285 126.623 53.5124 132.034C76.3334 143.484 104.59 145.176 128.928 136.549C155.69 127.062 177.031 106.456 187.545 79.9486C188.408 77.7727 189.114 75.7725 189.114 75.504C189.114 75.1537 185.644 75.0158 176.814 75.0158H164.514L162.943 78.1595C153.092 97.8679 133.721 112.651 111.612 117.332C105.37 118.653 96.1105 119.103 89.2018 118.421C67.1925 116.249 46.9694 104.151 34.7667 85.8562C33.2556 83.5906 31.2099 80.2244 30.2202 78.3763L28.4215 75.0158H16.1537C9.40648 75.0158 3.8859 75.1862 3.8859 75.3948Z" fill="#FF8A00"/>
</svg>
