<svg width="682" height="230" viewBox="0 0 682 230" fill="none" xmlns="http://www.w3.org/2000/svg">
<path d="M681.338 146.691H632.371V135.969L659.595 93.9717H634.218V80.0918H680.206V91.8867L653.876 132.812H681.338V146.691Z" fill="#00BA4D"/>
<path d="M584.118 110.473L590.79 100.346L607.053 80.0918H627.545L603.479 108.983L629.094 146.691H608.125L591.922 121.076L584.833 125.961V146.691H566.664V54H584.833V95.3418L583.88 110.473H584.118Z" fill="#00BA4D"/>
<path d="M529.312 138.173C529.312 136.306 529.571 134.738 530.087 133.467C530.643 132.156 531.397 131.104 532.351 130.31C533.304 129.515 534.416 128.939 535.687 128.582C536.957 128.225 538.327 128.046 539.797 128.046C541.187 128.046 542.497 128.225 543.729 128.582C544.999 128.939 546.111 129.515 547.064 130.31C548.018 131.104 548.772 132.156 549.328 133.467C549.884 134.738 550.162 136.306 550.162 138.173C550.162 139.96 549.884 141.489 549.328 142.76C548.772 144.031 548.018 145.083 547.064 145.917C546.111 146.751 544.999 147.347 543.729 147.704C542.497 148.101 541.187 148.3 539.797 148.3C538.327 148.3 536.957 148.101 535.687 147.704C534.416 147.347 533.304 146.751 532.351 145.917C531.397 145.083 530.643 144.031 530.087 142.76C529.571 141.489 529.312 139.96 529.312 138.173Z" fill="#00BA4D"/>
<path d="M508.405 133.407C510.192 133.407 511.88 133.209 513.469 132.812C515.097 132.414 516.745 131.918 518.413 131.322V144.845C516.705 145.718 514.581 146.433 512.039 146.989C509.537 147.585 506.797 147.883 503.818 147.883C500.919 147.883 498.219 147.545 495.717 146.87C493.215 146.195 491.05 145.023 489.224 143.355C487.397 141.648 485.947 139.384 484.875 136.564C483.842 133.705 483.326 130.131 483.326 125.842V93.7334H474.629V86.0488L484.637 79.9727L489.879 65.9141H501.495V80.0918H517.698V93.7334H501.495V125.842C501.495 128.423 502.131 130.329 503.401 131.561C504.672 132.792 506.34 133.407 508.405 133.407Z" fill="#00BA4D"/>
<path d="M467.003 126.914C467.003 130.409 466.368 133.467 465.097 136.088C463.826 138.709 462.019 140.893 459.676 142.641C457.333 144.388 454.493 145.699 451.157 146.572C447.821 147.446 444.088 147.883 439.958 147.883C437.774 147.883 435.748 147.803 433.882 147.645C432.015 147.525 430.248 147.307 428.58 146.989C426.912 146.672 425.304 146.274 423.755 145.798C422.206 145.321 420.637 144.726 419.049 144.011V128.999C420.717 129.833 422.464 130.588 424.291 131.263C426.158 131.938 428.004 132.534 429.831 133.05C431.658 133.526 433.425 133.904 435.133 134.182C436.88 134.46 438.489 134.599 439.958 134.599C441.586 134.599 442.976 134.46 444.128 134.182C445.28 133.864 446.213 133.447 446.928 132.931C447.682 132.375 448.218 131.739 448.536 131.024C448.894 130.27 449.072 129.476 449.072 128.642C449.072 127.808 448.933 127.073 448.655 126.438C448.417 125.762 447.841 125.067 446.928 124.353C446.014 123.598 444.664 122.764 442.877 121.851C441.13 120.897 438.767 119.746 435.788 118.396C432.889 117.085 430.367 115.794 428.223 114.523C426.118 113.213 424.37 111.763 422.98 110.175C421.63 108.586 420.618 106.779 419.942 104.754C419.267 102.689 418.93 100.246 418.93 97.4268C418.93 94.3291 419.525 91.6286 420.717 89.3252C421.908 86.9821 423.596 85.0361 425.78 83.4873C427.965 81.9385 430.586 80.7868 433.644 80.0322C436.741 79.238 440.176 78.8408 443.949 78.8408C447.921 78.8408 451.693 79.2975 455.268 80.2109C458.842 81.1243 462.515 82.4945 466.288 84.3213L460.808 97.1885C457.789 95.7588 454.91 94.5872 452.17 93.6738C449.43 92.7604 446.689 92.3037 443.949 92.3037C441.487 92.3037 439.7 92.7406 438.588 93.6143C437.516 94.488 436.979 95.6794 436.979 97.1885C436.979 97.9827 437.118 98.6976 437.396 99.333C437.674 99.9287 438.23 100.564 439.064 101.239C439.898 101.875 441.07 102.59 442.579 103.384C444.088 104.138 446.054 105.072 448.477 106.184C451.296 107.415 453.838 108.646 456.102 109.877C458.365 111.068 460.311 112.438 461.939 113.987C463.568 115.536 464.819 117.343 465.692 119.408C466.566 121.473 467.003 123.975 467.003 126.914Z" fill="#00BA4D"/>
<path d="M364.602 113.272C364.602 119.905 365.535 124.909 367.401 128.284C369.268 131.62 372.306 133.288 376.516 133.288C380.686 133.288 383.704 131.6 385.57 128.225C387.437 124.849 388.37 119.865 388.37 113.272C388.37 106.64 387.437 101.696 385.57 98.4395C383.704 95.1432 380.646 93.4951 376.396 93.4951C372.227 93.4951 369.208 95.1432 367.342 98.4395C365.515 101.696 364.602 106.64 364.602 113.272ZM406.896 113.272C406.896 118.832 406.182 123.757 404.752 128.046C403.362 132.335 401.337 135.949 398.676 138.888C396.055 141.826 392.838 144.07 389.025 145.619C385.253 147.128 381.003 147.883 376.277 147.883C371.869 147.883 367.818 147.128 364.125 145.619C360.432 144.07 357.235 141.826 354.534 138.888C351.873 135.949 349.788 132.335 348.279 128.046C346.77 123.757 346.016 118.832 346.016 113.272C346.016 107.752 346.711 102.848 348.101 98.5586C349.53 94.2695 351.556 90.6755 354.177 87.7764C356.838 84.8376 360.054 82.6136 363.827 81.1045C367.6 79.5954 371.869 78.8408 376.635 78.8408C381.043 78.8408 385.094 79.5954 388.787 81.1045C392.48 82.6136 395.658 84.8376 398.318 87.7764C401.019 90.6755 403.124 94.2695 404.633 98.5586C406.142 102.848 406.896 107.752 406.896 113.272Z" fill="#00BA4D"/>
<path d="M310.273 147.883C308.089 147.883 306.123 147.645 304.376 147.168C302.668 146.691 301.139 146.056 299.789 145.262C298.439 144.467 297.247 143.574 296.215 142.581C295.182 141.549 294.249 140.476 293.415 139.364H292.462C292.621 140.754 292.78 142.065 292.938 143.296C293.058 144.328 293.157 145.401 293.236 146.513C293.355 147.585 293.415 148.419 293.415 149.015V176H275.246V80.0918H290.02L292.581 88.7295H293.415C294.249 87.3792 295.202 86.1084 296.274 84.917C297.347 83.7256 298.578 82.693 299.968 81.8193C301.397 80.9059 303.006 80.1911 304.793 79.6748C306.58 79.1188 308.566 78.8408 310.75 78.8408C314.205 78.8408 317.342 79.5755 320.162 81.0449C322.982 82.5143 325.404 84.6986 327.43 87.5977C329.455 90.4967 331.024 94.0908 332.136 98.3799C333.248 102.669 333.804 107.633 333.804 113.272C333.804 118.951 333.228 123.955 332.076 128.284C330.924 132.573 329.296 136.187 327.191 139.126C325.126 142.025 322.644 144.209 319.745 145.679C316.886 147.148 313.729 147.883 310.273 147.883ZM304.614 93.376C302.589 93.376 300.861 93.7533 299.432 94.5078C298.042 95.2227 296.91 96.3148 296.036 97.7842C295.162 99.2536 294.527 101.12 294.13 103.384C293.733 105.608 293.494 108.209 293.415 111.188V113.153C293.415 116.37 293.594 119.229 293.951 121.731C294.348 124.233 294.984 126.338 295.857 128.046C296.731 129.714 297.883 130.985 299.313 131.858C300.782 132.732 302.589 133.169 304.733 133.169C308.347 133.169 310.988 131.461 312.656 128.046C314.364 124.591 315.218 119.587 315.218 113.034C315.218 106.481 314.364 101.577 312.656 98.3203C310.988 95.0241 308.308 93.376 304.614 93.376Z" fill="#00BA4D"/>
<path d="M247.188 146.691H228.781V96.2949C228.781 95.2624 228.781 94.0313 228.781 92.6016C228.821 91.1322 228.861 89.623 228.9 88.0742C228.98 86.4857 229.039 84.8971 229.079 83.3086C229.159 81.7201 229.218 80.2705 229.258 78.96C229.059 79.1982 228.722 79.5557 228.245 80.0322C227.769 80.5088 227.232 81.0449 226.637 81.6406C226.041 82.1966 225.425 82.7725 224.79 83.3682C224.155 83.9639 223.539 84.5 222.943 84.9766L212.936 93.0186L204 81.9385L232.058 59.5996H247.188V146.691Z" fill="#FFBB00"/>
<path d="M64.3457 65.6709V76.2158C64.3457 77.659 65.5157 78.829 66.9589 78.829H78.4683C79.9115 78.829 81.0815 79.9989 81.0815 81.4421V148.808C81.0815 150.251 82.2514 151.421 83.6946 151.421H174.364C175.808 151.421 176.978 150.251 176.978 148.808V81.4421C176.978 79.9989 178.147 78.829 179.591 78.829H190.431C191.874 78.829 193.044 77.659 193.044 76.2158V65.6847C193.044 64.9972 192.773 64.3374 192.29 63.8483L129.985 0.776713C128.956 -0.265536 127.27 -0.257866 126.25 0.79371L65.0832 63.8514C64.6102 64.339 64.3457 64.9916 64.3457 65.6709Z" fill="#00BA4D"/>
<path d="M128.697 164.329L128.697 153.784C128.697 152.341 127.527 151.171 126.084 151.171L114.575 151.171C113.131 151.171 111.961 150.001 111.961 148.558L111.961 42.8114C111.961 41.3682 110.792 40.1982 109.348 40.1982L18.6786 40.1983C17.2354 40.1983 16.0654 41.3682 16.0654 42.8114L16.0654 148.558C16.0654 150.001 14.8955 151.171 13.4523 151.171L2.61224 151.171C1.16903 151.171 -0.000922317 152.341 -0.00092219 153.784L-0.00092127 164.315C-0.00092121 165.003 0.270029 165.662 0.753191 166.152L63.0579 229.223C64.0874 230.265 65.7726 230.258 66.7926 229.206L127.96 166.148C128.433 165.661 128.697 165.008 128.697 164.329Z" fill="#FFBB00"/>
<path fill-rule="evenodd" clip-rule="evenodd" d="M64.2949 76.0977V65.5528C64.2949 64.8735 64.5594 64.2209 65.0324 63.7333L87.9767 40.0798L109.292 40.0798C110.736 40.0798 111.906 41.2498 111.906 42.693L111.906 148.439C111.906 149.883 113.076 151.052 114.519 151.052H126.028C126.428 151.052 126.807 151.142 127.146 151.303H83.6439C82.2007 151.303 81.0307 150.133 81.0307 148.69V81.324C81.0307 79.8808 79.8608 78.7109 78.4175 78.7109H66.9081C65.4649 78.7109 64.2949 77.5409 64.2949 76.0977Z" fill="#028805"/>
</svg>
